<?xml version="1.0" encoding="utf-8"?>
<!-- Generator: Adobe Illustrator 22.0.0, SVG Export Plug-In . SVG Version: 6.00 Build 0)  -->
<svg version="1.1" id="Calque_1" xmlns="http://www.w3.org/2000/svg" xmlns:xlink="http://www.w3.org/1999/xlink" x="0px" y="0px"
	 viewBox="0 0 16 16" style="enable-background:new 0 0 16 16;" xml:space="preserve">
<style type="text/css">
	.st0{fill:#898F9E;}
</style>
<path class="st0" d="M15.1,4C15.1,3.9,15.1,3.9,15.1,4c0-0.1,0-0.1,0-0.1v0c0,0-0.1-0.1-0.1-0.1l0,0c0,0-0.1,0-0.1-0.1l0,0h0l0,0
	L7.8,0.1C7.7,0,7.5,0,7.3,0.1L5,1.3L12.1,5l0,0c0,0,0,0,0,0c0,0,0,0,0,0.1c0,0,0,0,0,0v0V9c0,0.1,0,0.1-0.1,0.2l-1.4,0.8
	c-0.1,0.1-0.2,0-0.2-0.1c0,0,0-0.1,0-0.1V5.9L3.2,2.2l0,0L0.3,3.6l0,0h0l0,0c0,0-0.1,0-0.1,0.1l0,0c0,0-0.1,0.1-0.1,0.1v0
	c0,0,0,0.1,0,0.1c0,0,0,0,0,0C0,4,0,4,0,4v0v7.9c0,0.2,0.1,0.4,0.3,0.5l7,3.6C7.4,16,7.5,16,7.7,16l0,0c0,0,0.1,0,0.1,0l7.1-3.5
	c0.2-0.1,0.3-0.3,0.3-0.5V4.1v0C15.1,4,15.1,4,15.1,4z"/>
</svg>
