<?xml version="1.0" encoding="utf-8"?>
<!-- Generator: Adobe Illustrator 22.0.0, SVG Export Plug-In . SVG Version: 6.00 Build 0)  -->
<svg version="1.1" id="Calque_1" xmlns="http://www.w3.org/2000/svg" xmlns:xlink="http://www.w3.org/1999/xlink" x="0px" y="0px"
	 viewBox="0 0 21 16" style="enable-background:new 0 0 21 16;" xml:space="preserve">
<style type="text/css">
	.st0{fill:#FFFFFF;}
</style>
<path class="st0" d="M9.6,7.8L9,7C8.8,6.9,8.6,6.8,8.4,6.8H2.7C2.4,6.8,2.2,6.9,2.1,7L1.5,7.8C1.3,8,1.2,8.2,1.2,8.4V12
	c0,0.5,0.4,1,1,1h6.7c0.5,0,1-0.4,1-1V8.4C9.8,8.2,9.8,8,9.6,7.8z M2.2,7.7l0.4-0.5h5.7l0.4,0.5H6H5.5H5H4.5H2.2z"/>
<path class="st0" d="M18.9,7.8L18.2,7c-0.1-0.2-0.3-0.3-0.6-0.3h-5.7c-0.2,0-0.4,0.1-0.6,0.3l-0.7,0.8c-0.1,0.2-0.2,0.4-0.2,0.6V12
	c0,0.5,0.4,1,1,1h6.7c0.5,0,1-0.4,1-1V8.4C19.1,8.2,19,8,18.9,7.8z M11.5,7.7l0.4-0.5h5.7l0.4,0.5h-2.8h-0.5h-0.5h-0.5H11.5z"/>
<path class="st0" d="M13.9,1.1l-0.7-0.8C13.1,0.1,12.9,0,12.7,0H7C6.7,0,6.6,0.1,6.4,0.3L5.8,1.1C5.6,1.2,5.5,1.4,5.5,1.7v3.5
	c0,0.5,0.4,1,1,1h6.7c0.5,0,1-0.4,1-1V1.7C14.2,1.4,14.1,1.2,13.9,1.1z M6.6,1l0.4-0.5h5.7L13.1,1h-2.8H9.8H9.3H8.8H6.6z"/>
<path class="st0" d="M0,14.5c0-0.6,0.4-1,1-1h2.9h12.5h2.9h0.4c0.3,0,0.6,0.3,0.6,0.6v0.6l0,0c0,0,0,0,0,0V15c0,0.6-0.4,1-1,1h-2.9
	c-0.6,0-1-0.4-1-1c0-0.1-0.1-0.2-0.2-0.2h-10c-0.1,0-0.2,0.1-0.2,0.2c0,0.6-0.4,1-1,1H1c-0.6,0-1-0.4-1-1v-0.2V14.5z"/>
</svg>
