<svg width="21" height="16" viewBox="0 0 21 16" fill="none" xmlns="http://www.w3.org/2000/svg">
<path d="M9.62593 7.83658L8.96063 7.03247C8.8314 6.86974 8.63516 6.76923 8.4102 6.76923H2.66661C2.44165 6.76923 2.24541 6.86974 2.1114 7.03247L1.45088 7.83658C1.31208 7.99931 1.23071 8.2147 1.23071 8.44444V11.9658C1.23071 12.4923 1.66148 12.9231 2.18798 12.9231H8.88883C9.41533 12.9231 9.8461 12.4923 9.8461 11.9658V8.44444C9.8461 8.2147 9.76473 7.99931 9.62593 7.83658ZM2.24541 7.72649L2.63311 7.24786H8.3767L8.82661 7.72649H6.01704H5.5384H4.99994H4.46148H2.24541Z" fill="#898F9E"/>
<path d="M18.8568 7.83658L18.1915 7.03247C18.0623 6.86974 17.8661 6.76923 17.6411 6.76923H11.8975C11.6725 6.76923 11.4763 6.86974 11.3423 7.03247L10.6818 7.83658C10.543 7.99931 10.4616 8.2147 10.4616 8.44444V11.9658C10.4616 12.4923 10.8924 12.9231 11.4189 12.9231H18.1197C18.6462 12.9231 19.077 12.4923 19.077 11.9658V8.44444C19.077 8.2147 18.9956 7.99931 18.8568 7.83658ZM11.4763 7.72649L11.864 7.24786H17.6076L18.0575 7.72649H15.2479H14.7693H14.2308H13.6924H11.4763Z" fill="#898F9E"/>
<path d="M13.9336 1.06735L13.2683 0.263248C13.1391 0.100513 12.9428 0 12.7179 0H6.97429C6.74933 0 6.55309 0.100513 6.41907 0.263248L5.75856 1.06735C5.61976 1.23009 5.53839 1.44547 5.53839 1.67521V5.19658C5.53839 5.72308 5.96916 6.15385 6.49566 6.15385H13.1965C13.723 6.15385 14.1538 5.72308 14.1538 5.19658V1.67521C14.1538 1.44547 14.0724 1.23009 13.9336 1.06735ZM6.55309 0.957265L6.94078 0.478633H12.6844L13.1343 0.957265H10.3247H9.84608H9.30762H8.76916H6.55309Z" fill="#898F9E"/>
<path fill-rule="evenodd" clip-rule="evenodd" d="M0 14.5385C0 13.9862 0.447716 13.5385 1 13.5385H3.92308H16.3845H19.3076H19.6923C20.0322 13.5385 20.3077 13.814 20.3077 14.1539V14.7692C20.3077 14.7692 20.3077 14.7692 20.3077 14.7692C20.3076 14.7692 20.3076 14.7693 20.3076 14.7693V15C20.3076 15.5523 19.8599 16 19.3076 16H16.3845C15.8323 16 15.3845 15.5523 15.3845 15C15.3845 14.8726 15.2812 14.7692 15.1538 14.7692H5.15385C5.0264 14.7692 4.92308 14.8726 4.92308 15C4.92308 15.5523 4.47536 16 3.92308 16H0.999999C0.447715 16 0 15.5523 0 15V14.7692V14.5385Z" fill="#898F9E"/>
</svg>
