<svg width="27" height="24" viewBox="0 0 27 24" fill="none" xmlns="http://www.w3.org/2000/svg">
<path d="M22.6667 6.66667H4C1.78667 6.66667 0 8.45333 0 10.6667V18.6667H5.33333V24H21.3333V18.6667H26.6667V10.6667C26.6667 8.45333 24.88 6.66667 22.6667 6.66667ZM18.6667 21.3333H8V14.6667H18.6667V21.3333ZM22.6667 12C21.9333 12 21.3333 11.4 21.3333 10.6667C21.3333 9.93333 21.9333 9.33333 22.6667 9.33333C23.4 9.33333 24 9.93333 24 10.6667C24 11.4 23.4 12 22.6667 12ZM21.3333 0H5.33333V5.33333H21.3333V0Z" fill="#E86003"/>
</svg>
